<?xml version="1.0" standalone="no"?>
<!DOCTYPE svg PUBLIC "-//W3C//DTD SVG 20010904//EN"
 "http://www.w3.org/TR/2001/REC-SVG-20010904/DTD/svg10.dtd">
<svg version="1.0" xmlns="http://www.w3.org/2000/svg"
 width="512.000000pt" height="512.000000pt" viewBox="0 0 512.000000 512.000000"
 preserveAspectRatio="xMidYMid meet">
<metadata>
Created by potrace 1.16, written by Peter Selinger 2001-2019
</metadata>
<g transform="translate(0.000000,512.000000) scale(0.100000,-0.100000)"
fill="#000000" stroke="none">
<path d="M3790 4923 c0 -5 32 -46 71 -93 74 -89 107 -139 134 -204 l17 -39
-49 37 c-80 61 -202 132 -327 190 -130 61 -126 60 -126 47 0 -24 64 -80 166
-148 159 -104 237 -199 291 -354 23 -67 25 -85 21 -189 -4 -96 -10 -131 -37
-209 -75 -222 -160 -320 -340 -390 l-49 -20 38 92 c83 202 75 392 -26 573 -36
66 -119 174 -134 174 -5 0 9 -37 30 -83 60 -127 83 -224 84 -347 0 -120 -13
-188 -57 -278 -58 -120 -154 -198 -312 -252 -86 -29 -86 -29 -79 119 6 110 4
137 -15 216 -26 102 -106 279 -124 272 -15 -5 -12 -60 14 -207 16 -88 20 -142
16 -230 -5 -128 -20 -188 -69 -270 -29 -48 -38 -55 -64 -55 -21 0 -38 -8 -51
-23 -28 -36 -109 -53 -183 -40 -42 7 -78 7 -122 -1 -76 -13 -127 -2 -176 39
-30 25 -38 27 -60 17 -23 -10 -28 -8 -59 28 -111 127 -135 277 -93 575 20 142
20 170 0 170 -15 0 -64 -104 -93 -197 -47 -147 -53 -282 -18 -401 13 -43 -4
-50 -67 -27 -156 59 -234 120 -302 234 -61 104 -81 177 -90 330 -7 127 -6 140
18 215 13 45 37 107 53 138 16 32 29 61 29 64 0 17 -57 -47 -101 -115 -73
-110 -94 -187 -94 -346 0 -118 3 -137 28 -207 16 -42 42 -97 58 -123 17 -26
28 -49 25 -52 -8 -8 -162 63 -221 102 -93 62 -152 155 -197 311 -18 63 -23
103 -22 199 1 144 26 236 99 355 57 93 86 123 202 216 87 70 138 125 127 136
-7 8 -167 -80 -255 -139 -41 -28 -100 -74 -131 -102 -61 -56 -68 -59 -68 -33
0 38 62 142 135 227 42 49 72 91 66 93 -34 11 -198 -141 -243 -224 -37 -68
-57 -157 -64 -289 -7 -119 1 -189 42 -373 14 -62 24 -123 22 -135 -4 -20 -8
-18 -48 23 -109 111 -124 219 -66 485 8 38 13 72 10 74 -9 9 -44 -40 -80 -114
l-35 -70 5 115 c3 79 11 136 25 180 28 89 27 100 -8 66 -45 -43 -88 -134 -112
-232 -41 -170 -14 -363 72 -524 49 -92 124 -186 196 -245 78 -65 304 -180 478
-244 375 -137 472 -181 533 -240 47 -46 54 -76 20 -85 -13 -3 -26 -6 -29 -6
-3 0 -35 28 -70 63 -75 71 -122 97 -309 167 -74 28 -165 65 -203 82 -37 17
-70 28 -74 25 -8 -9 32 -218 64 -327 35 -121 80 -206 143 -271 80 -81 143
-111 255 -118 62 -4 100 -12 118 -24 68 -44 77 -141 34 -341 -30 -139 -36
-271 -17 -396 16 -106 7 -450 -15 -621 l-6 -44 23 29 c131 163 164 207 181
244 24 56 17 63 -16 15 -15 -21 -46 -60 -71 -88 l-44 -49 19 89 c10 50 22 131
25 182 6 82 3 106 -26 234 -33 139 -33 146 -22 234 7 49 18 113 24 140 l12 50
7 -80 c3 -44 12 -100 19 -125 7 -25 14 -54 16 -64 2 -11 13 -29 24 -41 11 -12
20 -31 20 -42 0 -42 105 -371 116 -361 1 2 -13 77 -31 167 l-33 163 28 -28
c26 -27 29 -38 38 -140 10 -109 28 -171 65 -219 12 -15 9 2 -9 64 -23 80 -34
237 -18 254 3 3 21 -3 39 -14 32 -19 33 -21 23 -57 -14 -52 -2 -145 26 -209
14 -29 27 -53 29 -53 2 0 -5 40 -16 88 -23 102 -18 169 11 153 50 -28 54 -35
38 -66 -18 -34 -21 -92 -6 -115 7 -11 10 -5 10 23 0 35 23 97 36 97 21 0 115
-76 128 -104 20 -43 21 -116 1 -163 -13 -30 -13 -34 -1 -23 48 39 58 169 19
248 -27 54 -11 44 24 -16 22 -37 28 -59 28 -107 0 -52 -6 -71 -43 -136 -23
-42 -42 -82 -42 -89 0 -13 86 101 126 167 l22 35 7 -53 c11 -78 7 -166 -10
-229 -8 -30 -13 -56 -11 -57 2 -2 13 19 25 47 47 110 51 236 12 341 -24 63
-24 62 -10 53 6 -3 23 -32 37 -63 22 -48 26 -70 26 -156 1 -92 -2 -105 -30
-165 -17 -36 -68 -114 -113 -174 -45 -60 -100 -143 -122 -185 -22 -42 -37 -67
-33 -56 4 11 9 45 11 75 6 69 -7 103 -76 193 -68 88 -97 153 -114 252 -16 95
-33 85 -22 -13 9 -88 36 -158 102 -264 29 -48 60 -102 68 -121 19 -46 20 -153
2 -202 -25 -68 -29 -153 -13 -270 8 -60 13 -112 11 -113 -2 -2 -16 20 -31 49
-52 104 -127 207 -244 339 -85 96 -111 130 -152 204 l-29 51 7 -40 c12 -73 61
-158 155 -265 167 -191 250 -314 300 -449 l28 -76 1 65 c0 114 39 224 118 335
20 28 108 124 197 215 185 189 211 221 259 316 51 100 65 177 71 376 3 95 9
207 14 249 10 79 1 215 -20 306 -11 45 -23 299 -22 444 0 76 23 131 65 163 23
16 45 20 126 21 85 0 105 4 152 28 147 72 252 225 310 453 21 82 36 214 27
238 -5 13 -16 11 -69 -14 -35 -16 -124 -45 -198 -65 -232 -61 -312 -101 -406
-203 -36 -40 -55 -54 -67 -49 -26 10 -21 24 30 78 60 64 182 124 413 204 460
160 599 241 715 414 167 252 200 539 88 768 -33 68 -116 173 -128 161 -3 -3 8
-38 24 -79 42 -106 64 -211 65 -314 1 -94 -11 -191 -22 -180 -4 3 -12 34 -19
68 -15 75 -90 230 -109 223 -8 -3 -14 11 -19 47 -21 171 -94 289 -249 404 -57
42 -76 51 -76 36z m237 -492 c8 -18 12 -36 9 -39 -7 -7 -6 -8 -45 61 -18 32
-44 72 -58 90 -14 18 -1 7 27 -23 29 -30 59 -70 67 -89z m-2850 101 c-9 -10
-37 -60 -62 -112 l-46 -95 6 50 c7 49 29 88 83 148 14 15 28 27 30 27 3 0 -2
-8 -11 -18z m-361 -244 c0 -92 4 -138 18 -183 26 -86 79 -184 136 -247 27 -31
47 -58 44 -61 -12 -12 102 -89 201 -136 134 -64 329 -141 375 -148 39 -6 63
-21 55 -34 -10 -15 -316 101 -462 175 -104 52 -163 101 -231 194 -102 136
-152 269 -152 403 0 59 9 159 15 159 1 0 2 -55 1 -122z m3350 -40 c23 -84 23
-231 1 -278 -15 -33 -16 -33 -9 -5 12 53 6 218 -11 283 -10 35 -17 71 -17 80
1 29 18 -8 36 -80z m-56 -252 c-12 -75 -31 -116 -55 -116 -19 0 -19 0 4 79 11
36 27 104 35 150 9 46 17 86 18 90 8 27 7 -148 -2 -203z m166 61 c-30 -103
-95 -216 -165 -287 -56 -58 -84 -76 -191 -128 -141 -68 -366 -154 -389 -150
-9 2 13 14 49 27 36 13 128 54 205 91 78 37 151 70 163 74 12 4 20 11 17 16
-2 4 35 38 84 75 49 37 104 87 121 111 33 47 110 203 110 225 0 7 3 10 6 6 3
-3 -1 -30 -10 -60z m-2739 -9 c-3 -8 -6 -5 -6 6 -1 11 2 17 5 13 3 -3 4 -12 1
-19z m1552 -373 c0 -18 -8 1 -19 45 -11 41 -19 80 -19 85 2 23 38 -103 38
-130z m-1992 78 c89 -61 100 -72 35 -37 -52 29 -124 83 -110 84 4 0 38 -21 75
-47z m932 -9 c-7 -27 -12 -98 -12 -159 -1 -100 -2 -105 -10 -55 -4 30 -6 82
-3 116 5 64 26 158 33 151 2 -3 -2 -26 -8 -53z m-719 -102 c0 -2 -6 0 -12 5
-72 54 -100 78 -109 96 -7 11 18 -6 55 -38 36 -32 66 -61 66 -63z m2572 58
c-34 -33 -68 -60 -74 -60 -6 0 -8 3 -4 7 19 20 132 112 136 112 3 0 -23 -27
-58 -59z m-408 -112 c-36 -59 -71 -103 -99 -125 -39 -31 -315 -165 -315 -153
0 17 51 48 157 95 136 61 168 82 218 145 38 48 55 65 39 38z m-1446 -252 c18
-9 32 -21 32 -26 0 -9 -145 54 -165 72 -13 11 93 -25 133 -46z m1718 5 c-4 -5
-12 -45 -20 -88 -7 -43 -22 -96 -32 -118 -27 -60 -27 -62 -4 -35 12 14 35 52
51 85 26 50 29 54 24 25 -21 -108 -94 -238 -191 -337 -109 -112 -185 -137
-319 -108 -77 17 -78 18 -51 32 20 11 35 11 64 3 83 -23 173 -2 230 53 29 28
96 136 89 143 -1 1 -13 -6 -26 -17 -13 -10 -20 -19 -15 -19 10 0 -35 -47 -66
-70 -14 -9 -36 -21 -50 -25 -16 -5 -9 4 21 24 57 38 88 71 68 71 -8 0 -1 8 14
19 28 18 64 61 51 61 -4 0 -22 -10 -41 -21 -50 -31 -50 -18 0 17 39 28 85 96
102 152 6 21 3 21 -38 -11 -24 -18 -71 -44 -105 -56 -71 -27 -75 -47 -5 -26
l46 14 -25 -27 c-38 -42 -61 -82 -46 -82 6 0 -3 -13 -21 -29 -28 -25 -30 -30
-14 -34 11 -3 7 -5 -12 -6 -16 -1 -48 -4 -69 -8 l-39 -6 39 37 c37 34 37 36
11 26 -43 -15 -44 -13 -7 20 l35 31 -35 -7 -35 -6 33 34 c31 33 34 52 6 41
-26 -10 -14 12 19 34 52 35 77 41 42 10 -26 -24 -18 -22 69 19 96 43 178 95
207 131 13 15 12 15 -8 5 -12 -7 -82 -28 -155 -47 -73 -20 -152 -47 -176 -61
-52 -31 -95 -88 -118 -157 -21 -66 -37 -96 -64 -125 l-23 -24 -43 49 c-50 55
-54 66 -19 57 33 -8 48 5 96 87 75 129 141 171 345 217 71 17 145 37 164 45
42 18 53 20 46 8z m-2265 -60 c24 -10 87 -29 139 -40 125 -28 188 -65 248
-144 69 -91 111 -130 135 -123 17 4 19 1 14 -31 -7 -40 -32 -83 -48 -83 -8 0
-7 5 1 15 10 12 9 15 -7 15 -30 0 -67 47 -112 142 -51 108 -74 126 -211 168
-58 18 -123 41 -145 52 -37 19 -35 14 40 -62 81 -84 83 -93 5 -30 -78 63 -110
98 -110 119 0 25 -3 25 51 2z m774 -106 c-50 -43 -125 -98 -125 -92 0 11 153
138 158 132 4 -3 -11 -21 -33 -40z m725 -53 l25 -26 -25 21 c-14 11 -51 35
-82 53 -32 17 -58 36 -58 41 0 13 109 -57 140 -89z m-1392 -36 c33 -17 122
-38 122 -28 0 8 -52 75 -70 90 -8 7 9 3 39 -7 64 -24 92 -46 46 -36 l-30 6 25
-18 c49 -36 80 -65 80 -75 0 -6 -6 -8 -12 -5 -62 23 -63 19 -14 -32 28 -28 47
-53 44 -56 -3 -4 -23 -2 -45 4 l-38 10 35 -31 c31 -27 32 -29 10 -23 -35 11
-102 44 -122 63 -15 13 -18 13 -18 1 0 -8 5 -20 12 -27 24 -24 -9 -11 -52 20
l-44 33 20 -34 c57 -98 185 -166 271 -142 37 9 47 8 75 -9 18 -11 29 -21 23
-21 -100 -14 -188 -12 -225 4 -122 52 -205 170 -260 369 l-19 70 57 -54 c32
-31 72 -63 90 -72z m896 58 c43 -5 56 -11 69 -33 l16 -26 1 27 c0 30 11 41 33
32 14 -5 14 -10 1 -41 -21 -50 -12 -64 10 -15 17 38 23 42 105 69 l86 28 57
-30 c31 -16 75 -45 97 -63 42 -34 42 -34 39 -93 l-3 -59 -33 0 c-51 0 -82 -21
-175 -123 -107 -117 -120 -152 -94 -255 9 -37 37 -106 61 -155 l44 -87 -38 34
c-66 60 -89 63 -34 5 65 -69 85 -101 98 -153 13 -50 30 -62 34 -23 5 41 -24
129 -80 247 -58 121 -72 205 -45 256 l16 29 1 -30 c0 -38 48 -212 88 -328 41
-114 52 -228 27 -280 -22 -46 -43 -52 -130 -35 l-68 14 46 27 c62 37 87 71 87
119 0 30 -7 46 -29 69 -16 16 -35 29 -43 29 -7 1 -76 2 -153 3 -140 2 -140 2
-167 -25 -57 -54 -20 -161 72 -208 24 -13 23 -13 -25 -26 -107 -28 -135 -10
-135 86 0 39 3 51 10 40 7 -11 10 -7 10 17 0 41 16 82 42 111 12 12 18 22 13
22 -5 0 11 21 35 46 42 43 43 45 14 31 -17 -9 -55 -42 -84 -74 l-53 -58 23 45
c13 25 34 62 47 84 32 50 69 149 78 208 5 36 2 56 -14 93 -28 64 -127 191
-171 221 -36 25 -102 32 -129 15 -10 -7 -2 -8 25 -5 84 10 169 -78 162 -168
l-3 -43 -32 51 c-48 79 -116 135 -72 59 l21 -34 -68 35 c-41 21 -78 34 -91 31
-32 -6 -29 9 12 59 25 30 35 52 35 77 0 31 9 41 101 115 l100 81 50 -19 c27
-11 73 -23 103 -26z m-425 -194 c-12 -22 -24 -38 -26 -36 -8 7 26 76 37 76 6
0 2 -17 -11 -40z m991 -67 c29 -29 31 -34 13 -28 -34 9 -99 -12 -138 -46 -35
-31 -44 -26 -24 14 11 23 -41 -31 -73 -75 l-17 -23 -1 28 c0 43 28 93 70 127
75 60 114 60 170 3z m-902 -59 c53 -22 98 -70 118 -125 11 -29 26 -51 41 -58
18 -8 23 -18 23 -50 0 -22 -4 -43 -10 -46 -5 -3 -10 0 -10 8 0 8 -10 27 -22
43 -13 15 -33 51 -46 79 -49 105 -99 127 -196 85 l-46 -19 11 22 c42 80 66 91
137 61z m960 -29 c23 -48 21 -52 -18 -30 -14 8 -47 14 -73 15 -56 0 -82 -20
-117 -91 -12 -24 -33 -58 -46 -76 -13 -17 -24 -38 -24 -47 0 -34 -19 -23 -39
23 -22 52 -28 135 -11 161 7 10 10 -7 10 -57 0 -40 4 -73 8 -73 14 0 59 53 80
95 37 73 108 125 173 125 32 0 37 -4 57 -45z m-693 -190 c0 -52 -7 -76 -57
-180 -31 -66 -59 -127 -62 -135 -15 -38 9 97 35 199 25 98 28 125 23 200 l-5
86 33 -55 c28 -46 33 -65 33 -115z m-257 118 c2 -8 -5 -13 -17 -13 -21 0 -35
13 -24 24 10 10 36 3 41 -11z m872 2 c0 -9 -7 -18 -16 -22 -18 -7 -39 11 -30
26 11 17 46 13 46 -4z m74 -101 c-3 -24 -17 -60 -30 -80 -13 -19 -27 -46 -30
-61 -9 -35 -89 -117 -108 -110 -15 6 -25 -18 -27 -63 0 -22 -37 114 -55 206
-9 45 25 79 69 69 18 -3 53 -9 78 -12 41 -4 48 -2 68 22 13 18 21 42 21 69 1
33 3 38 11 23 6 -10 7 -36 3 -63z m-1004 -39 c18 -17 25 -17 75 -5 53 13 56
12 79 -9 32 -30 36 -58 20 -149 -8 -42 -14 -93 -15 -112 -1 -34 -2 -33 -10 10
-4 25 -8 65 -9 90 l-2 45 -11 -49 -12 -49 -12 34 c-7 19 -26 41 -42 51 -16 9
-37 29 -47 45 -10 15 -26 38 -37 49 -18 22 -40 130 -29 148 3 5 11 -11 18 -36
8 -24 23 -53 34 -63z m0 50 c0 -5 -5 -3 -10 5 -5 8 -10 20 -10 25 0 6 5 3 10
-5 5 -8 10 -19 10 -25z m960 25 c0 -36 -75 -63 -110 -40 -11 8 -8 9 13 4 38
-9 75 3 82 26 7 21 15 27 15 10z m-863 -36 c-3 -3 -12 -4 -19 -1 -8 3 -5 6 6
6 11 1 17 -2 13 -5z m-40 -10 c-3 -3 -12 -4 -19 -1 -8 3 -5 6 6 6 11 1 17 -2
13 -5z m919 -161 c-10 -83 -36 -132 -110 -209 l-66 -69 25 60 c13 33 25 65 25
71 0 7 16 24 35 38 37 29 68 80 80 134 11 52 18 37 11 -25z m-951 -50 c10 -16
35 -42 55 -60 31 -27 40 -45 63 -130 15 -54 34 -118 42 -143 l14 -45 -20 24
c-10 13 -22 35 -25 50 -21 93 -28 106 -81 159 -65 64 -81 99 -89 185 l-5 62
14 -37 c8 -21 23 -50 32 -65z m153 -203 c0 -22 -1 -22 -8 5 -4 17 -8 39 -8 50
0 16 2 15 8 -5 4 -14 8 -36 8 -50z m213 31 c35 -35 38 -74 7 -95 -28 -20 -49
-20 -74 -2 -24 18 -10 34 16 18 29 -18 48 -15 60 9 14 25 -8 64 -40 74 -11 3
-20 11 -20 16 0 17 22 9 51 -20z m175 14 c-22 -17 -141 -21 -151 -6 -6 10 36
17 120 19 46 1 48 0 31 -13z m56 -11 c-28 -19 -44 -48 -36 -68 9 -24 31 -26
58 -5 22 17 26 18 26 5 0 -9 -11 -23 -25 -32 -36 -24 -75 -6 -75 34 0 34 34
82 58 82 13 0 12 -3 -6 -16z m323 -36 c-13 -75 -45 -118 -113 -153 -51 -25
-49 -11 2 24 54 37 79 71 96 129 7 23 15 42 17 42 3 0 2 -19 -2 -42z m85 -159
c25 -119 25 -177 0 -289 -13 -57 -22 -147 -26 -243 -7 -199 -16 -243 -72 -357
-43 -89 -58 -107 -224 -277 -166 -170 -245 -270 -283 -355 -15 -33 -15 -33 -9
22 18 178 54 248 211 412 145 151 167 190 188 330 9 57 26 139 39 183 14 44
26 89 29 100 4 18 5 18 6 -2 4 -80 51 66 51 159 0 56 13 39 20 -25 l5 -52 24
85 c30 104 33 235 8 293 -14 32 -15 45 -5 77 7 21 14 37 16 36 2 -2 12 -46 22
-97z m-427 -26 c75 -23 46 -38 -47 -24 -54 8 -89 8 -130 0 -30 -7 -67 -8 -83
-4 l-28 8 35 14 c80 34 159 36 253 6z m19 -102 c-10 -14 -23 -25 -28 -24 -5 1
-17 -6 -27 -14 -29 -27 -115 -28 -167 -1 -41 21 -82 70 -69 83 3 3 23 -2 45
-11 50 -21 200 -16 235 8 21 14 24 14 27 1 2 -9 -5 -27 -16 -42z"/>
<path d="M4084 3789 c-10 -11 -40 -34 -66 -51 -26 -17 -46 -34 -43 -36 8 -8
113 66 125 88 14 26 8 25 -16 -1z"/>
<path d="M2866 3041 c-48 -75 -72 -95 -159 -136 -32 -15 -68 -41 -80 -57 l-23
-28 -52 50 c-65 63 -89 66 -32 4 23 -25 52 -69 65 -97 21 -45 24 -48 24 -24 2
61 51 117 130 148 87 34 112 58 148 138 17 39 29 71 27 71 -2 0 -24 -31 -48
-69z"/>
<path d="M2241 3055 c-1 -37 37 -104 71 -125 49 -30 52 -24 10 18 -21 21 -48
58 -59 82 -14 29 -22 38 -22 25z"/>
<path d="M2386 3058 c4 -5 32 -21 63 -35 62 -27 105 -63 128 -107 l16 -30 18
37 c21 40 38 54 117 99 30 16 52 31 50 34 -3 2 -34 -8 -71 -22 -66 -26 -107
-61 -107 -93 -1 -9 -7 -2 -14 15 -16 36 -59 72 -95 80 -14 3 -45 12 -69 19
-26 9 -40 10 -36 3z"/>
<path d="M2502 2370 c-24 -5 -58 -18 -75 -29 -39 -25 -32 -26 19 -4 27 11 68
17 134 17 80 0 102 -3 139 -22 23 -13 40 -19 36 -13 -25 41 -166 69 -253 51z"/>
<path d="M3041 1570 c-14 -63 -14 -68 0 -149 9 -50 14 -61 20 -46 11 28 11
245 0 245 -5 0 -14 -23 -20 -50z"/>
<path d="M2972 1398 c-12 -40 -26 -102 -32 -138 -23 -127 -54 -183 -180 -315
-61 -64 -130 -151 -130 -165 0 -4 60 53 134 126 199 197 266 302 266 413 0 54
-19 151 -30 151 -4 0 -17 -33 -28 -72z"/>
<path d="M2045 2080 c4 -36 23 -110 42 -165 42 -122 46 -222 14 -325 -11 -35
-18 -66 -16 -68 7 -7 35 69 57 148 26 98 20 150 -36 318 -52 160 -70 187 -61
92z"/>
<path d="M3255 1845 c2 -16 15 -82 27 -145 29 -152 32 -383 5 -480 -29 -103
-85 -204 -177 -317 -143 -177 -180 -226 -206 -275 -37 -72 -29 -78 17 -12 23
32 92 113 153 179 61 66 125 140 142 165 134 194 161 404 93 717 -19 90 -64
228 -54 168z"/>
<path d="M2330 1650 c1 -36 43 -104 115 -181 76 -83 115 -142 115 -176 0 -13
3 -14 12 -5 25 25 -10 89 -103 192 -49 54 -100 117 -114 141 -14 24 -25 37
-25 29z"/>
<path d="M2146 1413 c-27 -56 -32 -140 -12 -201 10 -28 44 -88 78 -134 80
-110 106 -169 119 -269 17 -127 25 -136 33 -37 11 138 -4 188 -94 302 -86 110
-95 135 -95 263 0 62 -3 113 -6 113 -3 0 -13 -17 -23 -37z"/>
<path d="M2380 1400 c0 -28 43 -124 86 -191 15 -24 43 -71 62 -104 46 -84 30
-30 -27 90 -77 160 -121 235 -121 205z"/>
<path d="M2213 1305 c3 -66 9 -92 35 -145 18 -36 50 -86 73 -110 l40 -45 -39
65 c-53 91 -83 164 -98 245 l-14 70 3 -80z"/>
<path d="M1761 1281 c-2 -33 34 -141 69 -210 21 -42 84 -134 140 -206 60 -77
119 -167 146 -220 38 -75 44 -84 38 -50 -17 101 -64 188 -168 314 -129 154
-173 224 -207 331 -10 30 -18 49 -18 41z"/>
<path d="M1971 1232 c-3 -46 79 -161 132 -188 31 -16 30 -15 -10 25 -44 43
-97 115 -113 153 -5 13 -9 17 -9 10z"/>
<path d="M2315 1190 c11 -36 33 -78 46 -85 6 -4 -2 17 -17 46 -31 63 -40 74
-29 39z"/>
</g>
</svg>